Coordinates
version=1
nRows=10
nColumns=40
inDegrees=yes

Units are S.I. units (second, meters, Newtons, ...)
Angles are in degrees.

endheader
time	pelvis_tilt	pelvis_list	pelvis_rotation	pelvis_tx	pelvis_ty	pelvis_tz	hip_flexion_r	hip_adduction_r	hip_rotation_r	knee_angle_r	knee_angle_r_beta	ankle_angle_r	subtalar_angle_r	mtp_angle_r	hip_flexion_l	hip_adduction_l	hip_rotation_l	knee_angle_l	knee_angle_l_beta	ankle_angle_l	subtalar_angle_l	mtp_angle_l	lumbar_extension	lumbar_bending	lumbar_rotation	arm_flex_r	arm_add_r	arm_rot_r	elbow_flex_r	pro_sup_r	wrist_flex_r	wrist_dev_r	arm_flex_l	arm_add_l	arm_rot_l	elbow_flex_l	pro_sup_l	wrist_flex_l	wrist_dev_l
     24.03750000	     -5.32042860	     -5.22840715	      6.16884962	      0.77267010	      0.92771356	      0.43505148	     10.41960101	      3.50477154	    -17.28305117	     13.70858248	     13.70858248	     10.82047969	     -3.29485512	     -4.87450563	     36.55923022	     -9.94038555	      1.32452283	     42.76484338	     42.76484338	     10.38265360	    -19.02746198	     17.59458484	    -12.70064081	      5.83474522	      2.87386763	     23.10925891	    -18.41967397	      1.44278080	     64.91415198	     45.21036907	      0.00000000	      0.00000000	      1.54523312	    -14.49583647	    -17.10924537	     33.86180091	     46.03967012	      0.00000000	      0.00000000
     24.03914286	     -5.34464426	     -5.22220003	      6.20109996	      0.77247798	      0.92760050	      0.43497439	     10.53057365	      3.45220807	    -17.31361270	     13.96113916	     13.96113916	     10.99303167	     -3.37277966	     -4.74377899	     36.56609365	     -9.85687286	      1.31989627	     42.35008655	     42.35008655	     10.01521142	    -19.02730290	     16.59760311	    -12.72006977	      5.84213561	      2.97443011	     23.10033707	    -18.52977853	      1.32890608	     65.23455140	     45.20392160	      0.00000000	      0.00000000	      1.26056430	    -14.46438048	    -16.85061453	     34.45486026	     45.99937122	      0.00000000	      0.00000000
     24.04078571	     -5.33504836	     -5.21811772	      6.24680259	      0.77230794	      0.92765860	      0.43489631	     10.45321916	      3.45152634	    -17.36284325	     13.90476080	     13.90476080	     11.04834353	     -3.32479926	     -4.58284995	     36.52576659	     -9.75424693	      1.37571309	     41.91773335	     41.91773335	      9.72503238	    -19.02450897	     15.88662003	    -12.78927089	      5.83068973	      2.97566369	     23.12846617	    -18.52797622	      1.27923200	     65.46036627	     45.19791818	      0.00000000	      0.00000000	      1.07792516	    -14.43822532	    -16.68483452	     34.77758026	     45.96968172	      0.00000000	      0.00000000
     24.04242857	     -5.34447458	     -5.22169720	      6.26978759	      0.77218336	      0.92767233	      0.43488271	     10.37749266	      3.47019280	    -17.38368357	     13.81520144	     13.81520144	     11.09923609	     -3.24685710	     -4.45834526	     36.51459121	     -9.67205540	      1.42720740	     41.51823998	     41.51823998	      9.51051546	    -18.99709413	     15.29723508	    -12.82141574	      5.80691297	      2.97877386	     23.15805264	    -18.48558790	      1.26127343	     65.64154842	     45.19227926	      0.00000000	      0.00000000	      0.91586623	    -14.42124668	    -16.54771096	     34.98033492	     45.94392862	      0.00000000	      0.00000000
     24.04407143	     -5.35170838	     -5.21272977	      6.29677060	      0.77214970	      0.92775671	      0.43487261	     10.17437404	      3.51736666	    -17.39623613	     13.48799072	     13.48799072	     11.05976702	     -3.10919188	     -4.37664966	     36.50622757	     -9.57313583	      1.48141632	     41.15438748	     41.15438748	      9.45433518	    -18.94661937	     15.11121314	    -12.81564880	      5.77585017	      2.92075218	     23.22117739	    -18.31575263	      1.34061194	     65.69029962	     45.18773288	      0.00000000	      0.00000000	      0.88611126	    -14.41531944	    -16.54622127	     34.78535159	     45.93678003	      0.00000000	      0.00000000
     24.04571429	     -5.40987345	     -5.22938710	      6.32533214	      0.77196522	      0.92765439	      0.43483452	     10.15889369	      3.53203467	    -17.46338389	     13.39483955	     13.39483955	     10.96766340	     -3.04222171	     -4.74394926	     36.65186418	     -9.45586842	      1.64207285	     40.94929474	     40.94929474	      9.74923555	    -18.86595881	     15.95176626	    -12.73090278	      5.78243787	      2.88145882	     23.42164417	    -18.25429471	      1.56074341	     65.44089605	     45.19220230	      0.00000000	      0.00000000	      1.19777756	    -14.30941501	    -16.91841639	     33.73829305	     45.99412123	      0.00000000	      0.00000000
     24.04735714	     -5.43595032	     -5.20354255	      6.35653567	      0.77180757	      0.92763714	      0.43477307	     10.18009368	      3.49333527	    -17.47241975	     13.46180608	     13.46180608	     11.05908508	     -3.11540014	     -4.59531106	     36.62727720	     -9.33904267	      1.68086039	     40.50235823	     40.50235823	      9.41188949	    -18.85287211	     15.13582663	    -12.76282649	      5.74542653	      2.95813928	     23.40079711	    -18.29966764	      1.50830618	     65.69134079	     45.18592391	      0.00000000	      0.00000000	      0.98526103	    -14.29076189	    -16.74216606	     34.20513242	     45.96356835	      0.00000000	      0.00000000
     24.04900000	     -5.45673731	     -5.20465633	      6.36928628	      0.77169889	      0.92763828	      0.43474245	     10.10593634	      3.51203370	    -17.47625057	     13.35787994	     13.35787994	     11.09418989	     -3.04246075	     -4.45898192	     36.61482153	     -9.25707774	      1.71733078	     40.09352463	     40.09352463	      9.14051228	    -18.83162870	     14.42193326	    -12.76901977	      5.72280609	      2.95886229	     23.40608010	    -18.25943855	      1.51121156	     65.87211426	     45.17985588	      0.00000000	      0.00000000	      0.78586171	    -14.28475442	    -16.61001110	     34.42814177	     45.93563075	      0.00000000	      0.00000000
     24.05064286	     -5.46214255	     -5.20529769	      6.41103314	      0.77154582	      0.92760458	      0.43460888	     10.07293495	      3.50253327	    -17.50403572	     13.36301374	     13.36301374	     11.16964451	     -3.03162830	     -4.37152418	     36.61432284	     -9.15534288	      1.79327994	     39.72762779	     39.72762779	      8.91239990	    -18.78944956	     13.78475708	    -12.81588097	      5.77356977	      2.98612126	     23.47162094	    -18.26246602	      1.50575548	     66.03017792	     45.17501954	      0.00000000	      0.00000000	      0.63358345	    -14.26376376	    -16.46910090	     34.64862641	     45.90702267	      0.00000000	      0.00000000
     24.05228571	     -5.48058637	     -5.20734079	      6.42453094	      0.77140903	      0.92754022	      0.43454732	     10.09890408	      3.48403240	    -17.53651293	     13.46387666	     13.46387666	     11.27012541	     -3.02594376	     -4.33756407	     36.62155113	     -9.05597555	      1.89316347	     39.37209899	     39.37209899	      8.75434173	    -18.75945244	     13.25869254	    -12.80857377	      5.74576407	      3.01211770	     23.53479490	    -18.29805066	      1.48396599	     66.17777112	     45.17119979	      0.00000000	      0.00000000	      0.49514144	    -14.22796765	    -16.33415017	     34.84934957	     45.88226216	      0.00000000	      0.00000000
